<svg width="81" height="80" viewBox="0 0 81 80" fill="none" xmlns="http://www.w3.org/2000/svg">
    <path d="M23.2249 46.9708C23.0658 46.9558 22.8218 46.92 22.6825 46.8912C20.9208 46.5269 19.5378 45.0176 19.1935 43.0838C19.1103 42.6167 19.0932 41.6654 19.1596 41.2036C19.3254 40.05 19.8154 39.0757 20.6193 38.3009C21.4584 37.4921 22.4573 37.1027 23.6915 37.1033C25.1739 37.104 26.3483 37.6882 27.232 38.8646C27.8358 39.6685 28.1447 40.5156 28.2315 41.6057C28.3136 42.6374 28.1228 43.6421 27.6826 44.4955C27.0902 45.6439 26.1929 46.4396 25.1014 46.7844C24.5782 46.9497 23.8101 47.026 23.2249 46.9708ZM24.1975 46.2417C24.9604 45.9526 25.2159 45.0363 25.2548 42.449C25.2931 39.8965 25.0891 38.6238 24.5562 38.0909C24.3167 37.8514 24.0823 37.7614 23.6974 37.7614C23.3037 37.7614 23.0779 37.8506 22.8209 38.1077C22.4737 38.4548 22.288 38.9701 22.1734 39.9034C22.1237 40.3089 22.1142 40.6583 22.1145 42.0704C22.1149 43.9022 22.1458 44.3611 22.3133 45.0213C22.4897 45.7169 22.866 46.1799 23.3552 46.3034C23.5506 46.3527 23.9893 46.3206 24.1975 46.2417ZM48.0285 46.971C46.497 46.8257 45.2817 45.9543 44.5645 44.4873C44.1948 43.7313 44.0835 43.1885 44.0859 42.1537C44.0874 41.4906 44.096 41.38 44.1763 41.0002C44.2795 40.5117 44.4199 40.0955 44.6081 39.7201C45.2015 38.5363 46.1622 37.6776 47.2879 37.325C47.8262 37.1563 48.0969 37.1211 48.8506 37.1214C49.637 37.1217 49.92 37.169 50.4607 37.3907C51.3751 37.7656 51.9053 38.348 51.9955 39.0767C52.0733 39.7056 51.8176 40.2266 51.308 40.4773C51.0953 40.5819 51.0679 40.5868 50.7013 40.5868C50.3483 40.5868 50.3021 40.5793 50.1273 40.4935C49.8611 40.3628 49.6527 40.1219 49.5677 39.8467C49.5114 39.6647 49.5006 39.5365 49.5006 39.0514C49.5006 38.3567 49.4681 38.1745 49.3134 38.0033C49.1355 37.8063 48.9104 37.7258 48.5855 37.743C48.0033 37.7737 47.6028 38.1054 47.339 38.7755C47.2085 39.107 47.082 39.608 47.0123 40.0701C46.9325 40.5984 46.9326 41.7091 47.0123 42.237C47.2512 43.8182 47.9143 44.982 48.8201 45.4095C49.4634 45.7132 50.412 45.6518 51.0578 45.2648C51.1594 45.2039 51.3944 45.0081 51.58 44.8296C51.7657 44.6511 51.9267 44.5086 51.9378 44.5129C51.9489 44.5172 52.0352 44.5904 52.1295 44.6757L52.3009 44.8308L52.1442 45.0425C51.7314 45.6001 50.9601 46.2564 50.3694 46.5528C49.6943 46.8915 48.8258 47.0467 48.0285 46.971H48.0285ZM64.8359 46.967C64.5434 46.9336 64.0946 46.8108 63.819 46.689C63.3068 46.4625 62.748 45.9835 62.419 45.489C61.7566 44.4935 61.6674 43.2206 62.1851 42.1508C62.784 40.9133 64.013 40.1827 65.3859 40.2479C66.2457 40.2887 66.9625 40.5996 67.581 41.1999C68.2073 41.8077 68.5501 42.5719 68.5919 43.4539C68.6571 44.8269 67.9265 46.0558 66.689 46.6547C66.3215 46.8325 65.9899 46.9259 65.5693 46.9699C65.2141 47.0072 65.1857 47.0071 64.8359 46.967ZM11.5959 45.2874V43.6039H11.8741H12.1522L12.2412 43.9436C12.414 44.603 12.6524 45.0552 13.0295 45.4391C13.6545 46.0755 14.6098 46.3905 15.404 46.2222C15.8591 46.1258 16.1392 45.9285 16.3155 45.5805C16.406 45.4017 16.4132 45.3602 16.4132 45.0202C16.4132 44.6727 16.4073 44.641 16.3041 44.4311C16.1075 44.0315 15.9757 43.9408 14.6093 43.265C13.2273 42.5816 12.8119 42.3261 12.396 41.904C11.8429 41.3425 11.6311 40.8112 11.6299 39.9827C11.6294 39.6647 11.6463 39.5115 11.7092 39.2636C11.9312 38.3884 12.5708 37.6567 13.39 37.3408C13.7952 37.1846 14.1728 37.1255 14.7463 37.1285C15.2891 37.1314 15.5656 37.1785 16.4465 37.4183C16.6849 37.4832 16.9474 37.5362 17.03 37.5362C17.2235 37.5362 17.3747 37.4436 17.4627 37.2711L17.5314 37.1364H17.7474H17.9634V38.6033V40.0701H17.703H17.4426L17.402 39.9118C17.3435 39.6839 17.0542 39.0958 16.8817 38.854C16.6728 38.5612 16.2753 38.202 16.0006 38.0576C15.5501 37.8209 14.9823 37.7416 14.545 37.8544C13.876 38.0268 13.4768 38.7856 13.7482 39.3687C13.9735 39.8526 14.2289 40.0369 15.6464 40.7388C16.9185 41.3687 17.3006 41.6013 17.6644 41.9676C18.0561 42.3621 18.273 42.7654 18.3816 43.3012C18.4506 43.6416 18.4342 44.3496 18.3504 44.6491C18.2038 45.1733 17.8678 45.761 17.4994 46.1374C16.9229 46.7266 16.059 47.0102 14.9964 46.9591C14.4869 46.9346 14.1815 46.8676 13.3885 46.6063C13.0398 46.4914 12.7159 46.4042 12.6381 46.4042C12.4635 46.4042 12.3512 46.4964 12.196 46.7668L12.0793 46.9702L11.8376 46.9706L11.5959 46.971V45.2874ZM36.0823 46.9181C35.6022 46.8109 35.0657 46.5162 34.7991 46.2133C34.3023 45.6489 34.1847 44.5815 34.5342 43.8105C34.8296 43.1592 35.3006 42.7565 36.3738 42.2379C37.1665 41.8549 38.1637 41.4842 39.4244 41.1038L39.7661 41.0007L39.7655 40.077C39.7649 39.0707 39.74 38.8597 39.5801 38.5032C39.4798 38.2799 39.2376 38.0301 39.0403 37.9466C38.655 37.7835 37.9835 37.723 37.5901 37.8159C37.0007 37.9551 36.6916 38.291 36.8293 38.6428C36.8459 38.6852 36.9437 38.825 37.0467 38.9533C37.3111 39.2829 37.3753 39.4713 37.3594 39.8701C37.3484 40.1437 37.3334 40.2111 37.249 40.3654C37.1339 40.5758 36.9558 40.7372 36.7003 40.8628C36.5291 40.9469 36.4853 40.9535 36.0973 40.9535C35.6806 40.9535 35.6777 40.953 35.4248 40.828C35.1192 40.677 34.9024 40.4527 34.7953 40.1768C34.6834 39.8887 34.6901 39.3513 34.8101 38.9841C35.2142 37.7475 36.9527 36.9845 39.0237 37.1349C40.3638 37.2321 41.3924 37.6152 41.914 38.2111C42.0892 38.4113 42.3009 38.8005 42.3812 39.07C42.5234 39.5468 42.5327 39.762 42.5337 42.5871C42.5345 45.1525 42.5377 45.2943 42.5969 45.4247C42.6312 45.5002 42.6942 45.5864 42.7369 45.6164C42.8902 45.7237 43.1298 45.67 43.2974 45.4906C43.3418 45.443 43.3876 45.4041 43.3991 45.4041C43.4268 45.4041 43.6999 45.7921 43.6999 45.8314C43.6999 45.8825 43.1954 46.3463 42.9998 46.475C42.5191 46.7915 42.1005 46.9331 41.5663 46.9599C40.9738 46.9897 40.5186 46.8514 40.2174 46.5502C40.0496 46.3824 39.8869 46.0697 39.8273 45.8003C39.8054 45.7016 39.7832 45.615 39.7779 45.608C39.7726 45.6009 39.644 45.7003 39.4921 45.8288C38.8587 46.365 38.2087 46.6939 37.3991 46.8879C37.0737 46.9659 36.3687 46.9821 36.0823 46.9181ZM38.575 45.4885C38.9055 45.4184 39.1483 45.2734 39.4601 44.9601L39.7335 44.6853L39.7248 43.1957L39.7161 41.706L39.3764 41.82C37.9252 42.3069 37.1713 43.2601 37.3034 44.441C37.3223 44.6091 37.3684 44.7924 37.4219 44.9116C37.5741 45.2507 37.9497 45.5279 38.2659 45.5345C38.3118 45.5355 38.4508 45.5148 38.575 45.4885ZM56.3515 46.934C55.6283 46.8298 54.8978 46.4763 54.2068 45.896C53.2459 45.0893 52.7983 43.8768 52.7944 42.0704C52.7908 40.3691 53.1979 39.2249 54.1362 38.299C54.6559 37.7862 55.2923 37.4195 55.9538 37.2517C57.3816 36.8895 58.7273 37.2606 59.6914 38.2824C60.3498 38.9802 60.6745 39.8951 60.8197 41.4619L60.8422 41.7036H58.2551H55.6681V41.8787C55.6684 42.1323 55.7836 42.8773 55.8844 43.2763C56.1423 44.2969 56.6028 44.9954 57.206 45.2807C57.5359 45.4368 57.7575 45.4856 58.1349 45.4856C58.8504 45.4856 59.3913 45.2163 60.1044 44.5049L60.4571 44.1531L60.6795 44.2866C60.8018 44.36 60.9019 44.432 60.9019 44.4466C60.9019 44.4992 60.4968 45.0743 60.2577 45.3612C59.4933 46.2783 58.5717 46.8052 57.5024 46.9363C57.1746 46.9765 56.6389 46.9754 56.3513 46.934L56.3515 46.934ZM58.3209 40.4118C58.2652 39.102 58.1209 38.4192 57.8298 38.0886C57.665 37.9013 57.5154 37.8207 57.2397 37.7707C56.7824 37.6878 56.3688 37.852 56.1212 38.2148C55.8848 38.5614 55.7059 39.3249 55.6357 40.2868C55.617 40.5435 55.6016 40.8023 55.6015 40.8619V40.9702H56.9732H58.3448L58.3209 40.4118ZM28.8383 46.4333L28.8481 46.1957L29.0706 46.1209C29.4522 45.9926 29.6199 45.8593 29.7221 45.6032C29.7782 45.4626 29.7821 45.1412 29.791 39.9534C29.7976 36.08 29.7896 34.3878 29.7638 34.2331C29.7004 33.8518 29.5479 33.6973 29.0922 33.5531L28.8481 33.4758L28.8383 33.2392L28.8285 33.0026H30.7464H32.6644L32.6731 39.245C32.6815 45.1779 32.6849 45.4941 32.742 45.6208C32.8565 45.8748 33.0051 45.9879 33.3977 46.1202L33.6153 46.1935L33.6251 46.4322L33.6349 46.6709H31.2317H28.8285L28.8383 46.4333Z" fill="#5AC598"/>
</svg>
